{
    "asset" : {
        "generator" : "Khronos glTF Blender I/O v1.5.17",
        "version" : "2.0"
    },
    "extensionsUsed" : [
        "DSKULLE_game_object"
    ],
    "scene" : 0,
    "scenes" : [
        {
            "name" : "Scene",
            "nodes" : [
                0,
                1,
                2,
                3,
                4
            ]
        }
    ],
    "nodes" : [
        {
            "extensions" : {
                "DSKULLE_game_object" : {
                    "transform" : "org.dragonskulle.components.TransformHex"
                }
            },
            "mesh" : 0,
            "name" : "attack_building",
            "scale" : [
                0.0786953866481781,
                0.0786953866481781,
                0.0786953866481781
            ],
            "translation" : [
                0,
                0,
                0.15571892261505127
            ]
        },
        {
            "extensions" : {
                "DSKULLE_game_object" : {
                    "transform" : "org.dragonskulle.components.TransformHex"
                }
            },
            "mesh" : 1,
            "name" : "base_building",
            "translation" : [
                0,
                0,
                0.5089349746704102
            ]
        },
        {
            "extensions" : {
                "DSKULLE_game_object" : {
                    "transform" : "org.dragonskulle.components.TransformHex"
                }
            },
            "mesh" : 2,
            "name" : "defence_building",
            "scale" : [
                0.3147321939468384,
                0.3147321939468384,
                0.3147321939468384
            ],
            "translation" : [
                0,
                0,
                0.3152358829975128
            ]
        },
        {
            "extensions" : {
                "DSKULLE_game_object" : {
                    "transform" : "org.dragonskulle.components.TransformHex"
                }
            },
            "mesh" : 3,
            "name" : "generation_building",
            "scale" : [
                0.34277528524398804,
                0.34277528524398804,
                0.34277528524398804
            ],
            "translation" : [
                0,
                -0.15192091464996338,
                0.10254660993814468
            ]
        },
        {
            "extensions" : {
                "DSKULLE_game_object" : {
                    "transform" : "org.dragonskulle.components.Transform3D"
                }
            },
            "mesh" : 4,
            "name" : "capital_building",
            "rotation" : [
                0.4133571982383728,
                0,
                0,
                0.9105689525604248
            ],
            "scale" : [
                0.4026144742965698,
                0.4026144742965698,
                0.4026144742965698
            ],
            "translation" : [
                -0.3515176475048065,
                -0.031078696250915527,
                0.4060927629470825
            ]
        }
    ],
    "materials" : [
        {
            "doubleSided" : true,
            "name" : "Material",
            "pbrMetallicRoughness" : {
                "baseColorFactor" : [
                    0.800000011920929,
                    0.800000011920929,
                    0.800000011920929,
                    1
                ],
                "metallicFactor" : 0,
                "roughnessFactor" : 0.4000000059604645
            }
        },
        {
            "doubleSided" : true,
            "name" : "Material.001",
            "pbrMetallicRoughness" : {
                "baseColorFactor" : [
                    0.8006559014320374,
                    0.0015056653646752238,
                    0,
                    1
                ],
                "metallicFactor" : 0,
                "roughnessFactor" : 0.22058823704719543
            }
        },
        {
            "doubleSided" : true,
            "name" : "Material.002",
            "pbrMetallicRoughness" : {
                "baseColorFactor" : [
                    0.08714032173156738,
                    0.03364383056759834,
                    0.015137717127799988,
                    1
                ],
                "roughnessFactor" : 0.13970589637756348
            }
        },
        {
            "doubleSided" : true,
            "name" : "Material.003",
            "pbrMetallicRoughness" : {
                "baseColorFactor" : [
                    0.800000011920929,
                    0.800000011920929,
                    0.800000011920929,
                    1
                ],
                "metallicFactor" : 0,
                "roughnessFactor" : 0.4000000059604645
            }
        },
        {
            "doubleSided" : true,
            "name" : "Material.004",
            "pbrMetallicRoughness" : {
                "baseColorFactor" : [
                    0.800000011920929,
                    0.800000011920929,
                    0.800000011920929,
                    1
                ],
                "metallicFactor" : 0,
                "roughnessFactor" : 0.4000000059604645
            }
        }
    ],
    "meshes" : [
        {
            "name" : "Cube",
            "primitives" : [
                {
                    "attributes" : {
                        "POSITION" : 0,
                        "NORMAL" : 1,
                        "TEXCOORD_0" : 2
                    },
                    "indices" : 3,
                    "material" : 0
                }
            ]
        },
        {
            "name" : "Cube.002",
            "primitives" : [
                {
                    "attributes" : {
                        "POSITION" : 4,
                        "NORMAL" : 5,
                        "TEXCOORD_0" : 6
                    },
                    "indices" : 7,
                    "material" : 1
                },
                {
                    "attributes" : {
                        "POSITION" : 8,
                        "NORMAL" : 9,
                        "TEXCOORD_0" : 10
                    },
                    "indices" : 11,
                    "material" : 2
                }
            ]
        },
        {
            "name" : "Cube.001",
            "primitives" : [
                {
                    "attributes" : {
                        "POSITION" : 12,
                        "NORMAL" : 13,
                        "TEXCOORD_0" : 14
                    },
                    "indices" : 15,
                    "material" : 3
                }
            ]
        },
        {
            "name" : "Cube.003",
            "primitives" : [
                {
                    "attributes" : {
                        "POSITION" : 16,
                        "NORMAL" : 17,
                        "TEXCOORD_0" : 18
                    },
                    "indices" : 19,
                    "material" : 4
                }
            ]
        },
        {
            "name" : "Torus",
            "primitives" : [
                {
                    "attributes" : {
                        "POSITION" : 20,
                        "NORMAL" : 21,
                        "TEXCOORD_0" : 22
                    },
                    "indices" : 23
                }
            ]
        }
    ],
    "accessors" : [
        {
            "bufferView" : 0,
            "componentType" : 5126,
            "count" : 360,
            "max" : [
                2.4569389820098877,
                1.3863744735717773,
                6.995726108551025
            ],
            "min" : [
                -1.41352379322052,
                -1.5013352632522583,
                -1.775734305381775
            ],
            "type" : "VEC3"
        },
        {
            "bufferView" : 1,
            "componentType" : 5126,
            "count" : 360,
            "type" : "VEC3"
        },
        {
            "bufferView" : 2,
            "componentType" : 5126,
            "count" : 360,
            "type" : "VEC2"
        },
        {
            "bufferView" : 3,
            "componentType" : 5123,
            "count" : 540,
            "type" : "SCALAR"
        },
        {
            "bufferView" : 4,
            "componentType" : 5126,
            "count" : 242,
            "max" : [
                0.35526949167251587,
                0.36093583703041077,
                0.09791991114616394
            ],
            "min" : [
                -0.35526949167251587,
                -0.36093583703041077,
                -0.4944969713687897
            ],
            "type" : "VEC3"
        },
        {
            "bufferView" : 5,
            "componentType" : 5126,
            "count" : 242,
            "type" : "VEC3"
        },
        {
            "bufferView" : 6,
            "componentType" : 5126,
            "count" : 242,
            "type" : "VEC2"
        },
        {
            "bufferView" : 7,
            "componentType" : 5123,
            "count" : 798,
            "type" : "SCALAR"
        },
        {
            "bufferView" : 8,
            "componentType" : 5126,
            "count" : 816,
            "max" : [
                0.40454524755477905,
                0.40454527735710144,
                0.4072785973548889
            ],
            "min" : [
                -0.40454524755477905,
                -0.40454527735710144,
                0.09024301171302795
            ],
            "type" : "VEC3"
        },
        {
            "bufferView" : 9,
            "componentType" : 5126,
            "count" : 816,
            "type" : "VEC3"
        },
        {
            "bufferView" : 10,
            "componentType" : 5126,
            "count" : 816,
            "type" : "VEC2"
        },
        {
            "bufferView" : 11,
            "componentType" : 5123,
            "count" : 3090,
            "type" : "SCALAR"
        },
        {
            "bufferView" : 12,
            "componentType" : 5126,
            "count" : 360,
            "max" : [
                1.41352379322052,
                1.41352379322052,
                1.4656542539596558
            ],
            "min" : [
                -1.41352379322052,
                -1.41352379322052,
                -1
            ],
            "type" : "VEC3"
        },
        {
            "bufferView" : 13,
            "componentType" : 5126,
            "count" : 360,
            "type" : "VEC3"
        },
        {
            "bufferView" : 14,
            "componentType" : 5126,
            "count" : 360,
            "type" : "VEC2"
        },
        {
            "bufferView" : 15,
            "componentType" : 5123,
            "count" : 540,
            "type" : "SCALAR"
        },
        {
            "bufferView" : 16,
            "componentType" : 5126,
            "count" : 360,
            "max" : [
                0.43265777826309204,
                1.9913067817687988,
                3.0906262397766113
            ],
            "min" : [
                -1.1223833560943604,
                -2.2051961421966553,
                -0.6896593570709229
            ],
            "type" : "VEC3"
        },
        {
            "bufferView" : 17,
            "componentType" : 5126,
            "count" : 360,
            "type" : "VEC3"
        },
        {
            "bufferView" : 18,
            "componentType" : 5126,
            "count" : 360,
            "type" : "VEC2"
        },
        {
            "bufferView" : 19,
            "componentType" : 5123,
            "count" : 540,
            "type" : "SCALAR"
        },
        {
            "bufferView" : 20,
            "componentType" : 5126,
            "count" : 2304,
            "max" : [
                1.25,
                1.25,
                0.25
            ],
            "min" : [
                -1.25,
                -1.25,
                -0.25
            ],
            "type" : "VEC3"
        },
        {
            "bufferView" : 21,
            "componentType" : 5126,
            "count" : 2304,
            "type" : "VEC3"
        },
        {
            "bufferView" : 22,
            "componentType" : 5126,
            "count" : 2304,
            "type" : "VEC2"
        },
        {
            "bufferView" : 23,
            "componentType" : 5123,
            "count" : 3456,
            "type" : "SCALAR"
        }
    ],
    "bufferViews" : [
        {
            "buffer" : 0,
            "byteLength" : 4320,
            "byteOffset" : 0
        },
        {
            "buffer" : 0,
            "byteLength" : 4320,
            "byteOffset" : 4320
        },
        {
            "buffer" : 0,
            "byteLength" : 2880,
            "byteOffset" : 8640
        },
        {
            "buffer" : 0,
            "byteLength" : 1080,
            "byteOffset" : 11520
        },
        {
            "buffer" : 0,
            "byteLength" : 2904,
            "byteOffset" : 12600
        },
        {
            "buffer" : 0,
            "byteLength" : 2904,
            "byteOffset" : 15504
        },
        {
            "buffer" : 0,
            "byteLength" : 1936,
            "byteOffset" : 18408
        },
        {
            "buffer" : 0,
            "byteLength" : 1596,
            "byteOffset" : 20344
        },
        {
            "buffer" : 0,
            "byteLength" : 9792,
            "byteOffset" : 21940
        },
        {
            "buffer" : 0,
            "byteLength" : 9792,
            "byteOffset" : 31732
        },
        {
            "buffer" : 0,
            "byteLength" : 6528,
            "byteOffset" : 41524
        },
        {
            "buffer" : 0,
            "byteLength" : 6180,
            "byteOffset" : 48052
        },
        {
            "buffer" : 0,
            "byteLength" : 4320,
            "byteOffset" : 54232
        },
        {
            "buffer" : 0,
            "byteLength" : 4320,
            "byteOffset" : 58552
        },
        {
            "buffer" : 0,
            "byteLength" : 2880,
            "byteOffset" : 62872
        },
        {
            "buffer" : 0,
            "byteLength" : 1080,
            "byteOffset" : 65752
        },
        {
            "buffer" : 0,
            "byteLength" : 4320,
            "byteOffset" : 66832
        },
        {
            "buffer" : 0,
            "byteLength" : 4320,
            "byteOffset" : 71152
        },
        {
            "buffer" : 0,
            "byteLength" : 2880,
            "byteOffset" : 75472
        },
        {
            "buffer" : 0,
            "byteLength" : 1080,
            "byteOffset" : 78352
        },
        {
            "buffer" : 0,
            "byteLength" : 27648,
            "byteOffset" : 79432
        },
        {
            "buffer" : 0,
            "byteLength" : 27648,
            "byteOffset" : 107080
        },
        {
            "buffer" : 0,
            "byteLength" : 18432,
            "byteOffset" : 134728
        },
        {
            "buffer" : 0,
            "byteLength" : 6912,
            "byteOffset" : 153160
        }
    ],
    "buffers" : [
        {
            "byteLength" : 160072,
            "uri" : "building_templates.bin"
        }
    ]
}
