{
    "asset" : {
        "generator" : "Khronos glTF Blender I/O v1.5.17",
        "version" : "2.0"
    },
    "extensionsUsed" : [
        "DSKULLE_game_object"
    ],
    "scene" : 0,
    "scenes" : [
        {
            "name" : "Scene",
            "nodes" : [
                0,
                1,
                2,
                3
            ]
        }
    ],
    "nodes" : [
        {
            "extensions" : {
                "DSKULLE_game_object" : {
                    "transform" : "org.dragonskulle.components.TransformHex"
                }
            },
            "mesh" : 0,
            "name" : "attack_building",
            "scale" : [
                0.44444358348846436,
                0.44444358348846436,
                0.44444358348846436
            ],
            "translation" : [
                -1.029656171798706,
                -1.6586004495620728,
                -0.8152223229408264
            ]
        },
        {
            "extensions" : {
                "DSKULLE_game_object" : {
                    "transform" : "org.dragonskulle.components.TransformHex",
                    "components" : [
                        {
                            "class_name" : "org.dragonskulle.network.components.NetworkHexTransform",
                            "enabled" : true,
                            "properties" : [
                                {
                                    "name" : "mSyncHeight",
                                    "value" : false
                                }
                            ]
                        },
                        {
                            "class_name" : "org.dragonskulle.game.building.Building",
                            "enabled" : true
                        },
                        {
                            "class_name" : "org.dragonskulle.game.building.FogInvisibility",
                            "enabled" : true
                        }
                    ]
                }
            },
            "mesh" : 1,
            "name" : "base_building",
            "translation" : [
                -4,
                0,
                0
            ]
        },
        {
            "extensions" : {
                "DSKULLE_game_object" : {
                    "transform" : "org.dragonskulle.components.TransformHex"
                }
            },
            "mesh" : 2,
            "name" : "defence_building",
            "scale" : [
                0.3147321939468384,
                0.3147321939468384,
                0.3147321939468384
            ],
            "translation" : [
                -2.083935022354126,
                -2.044809579849243,
                0.49024641513824463
            ]
        },
        {
            "extensions" : {
                "DSKULLE_game_object" : {
                    "transform" : "org.dragonskulle.components.TransformHex"
                }
            },
            "mesh" : 3,
            "name" : "generation_building",
            "scale" : [
                0.34277528524398804,
                0.34277528524398804,
                0.34277528524398804
            ],
            "translation" : [
                0.9290027618408203,
                0.9290027618408203,
                -0.657224714756012
            ]
        }
    ],
    "materials" : [
        {
            "doubleSided" : true,
            "name" : "Material",
            "pbrMetallicRoughness" : {
                "baseColorFactor" : [
                    0.800000011920929,
                    0.800000011920929,
                    0.800000011920929,
                    1
                ],
                "metallicFactor" : 0,
                "roughnessFactor" : 0.4000000059604645
            }
        },
        {
            "doubleSided" : true,
            "name" : "Material.001",
            "pbrMetallicRoughness" : {
                "baseColorFactor" : [
                    0.8006559014320374,
                    0.0015056653646752238,
                    0,
                    1
                ],
                "metallicFactor" : 0,
                "roughnessFactor" : 0.22058823704719543
            }
        },
        {
            "doubleSided" : true,
            "name" : "Material.002",
            "pbrMetallicRoughness" : {
                "baseColorFactor" : [
                    0.08714032173156738,
                    0.03364383056759834,
                    0.015137717127799988,
                    1
                ],
                "roughnessFactor" : 0.13970589637756348
            }
        },
        {
            "doubleSided" : true,
            "name" : "Material.003",
            "pbrMetallicRoughness" : {
                "baseColorFactor" : [
                    0.800000011920929,
                    0.800000011920929,
                    0.800000011920929,
                    1
                ],
                "metallicFactor" : 0,
                "roughnessFactor" : 0.4000000059604645
            }
        },
        {
            "doubleSided" : true,
            "name" : "Material.004",
            "pbrMetallicRoughness" : {
                "baseColorFactor" : [
                    0.800000011920929,
                    0.800000011920929,
                    0.800000011920929,
                    1
                ],
                "metallicFactor" : 0,
                "roughnessFactor" : 0.4000000059604645
            }
        }
    ],
    "meshes" : [
        {
            "name" : "Cube",
            "primitives" : [
                {
                    "attributes" : {
                        "POSITION" : 0,
                        "NORMAL" : 1,
                        "TEXCOORD_0" : 2
                    },
                    "indices" : 3,
                    "material" : 0
                }
            ]
        },
        {
            "name" : "Cube.002",
            "primitives" : [
                {
                    "attributes" : {
                        "POSITION" : 4,
                        "NORMAL" : 5,
                        "TEXCOORD_0" : 6
                    },
                    "indices" : 7,
                    "material" : 1
                },
                {
                    "attributes" : {
                        "POSITION" : 8,
                        "NORMAL" : 9,
                        "TEXCOORD_0" : 10
                    },
                    "indices" : 11,
                    "material" : 2
                }
            ]
        },
        {
            "name" : "Cube.001",
            "primitives" : [
                {
                    "attributes" : {
                        "POSITION" : 12,
                        "NORMAL" : 13,
                        "TEXCOORD_0" : 14
                    },
                    "indices" : 15,
                    "material" : 3
                }
            ]
        },
        {
            "name" : "Cube.003",
            "primitives" : [
                {
                    "attributes" : {
                        "POSITION" : 16,
                        "NORMAL" : 17,
                        "TEXCOORD_0" : 18
                    },
                    "indices" : 19,
                    "material" : 4
                }
            ]
        }
    ],
    "accessors" : [
        {
            "bufferView" : 0,
            "componentType" : 5126,
            "count" : 360,
            "max" : [
                2.4569389820098877,
                1.3863744735717773,
                6.995726108551025
            ],
            "min" : [
                -1.41352379322052,
                -1.5013352632522583,
                -1.775734305381775
            ],
            "type" : "VEC3"
        },
        {
            "bufferView" : 1,
            "componentType" : 5126,
            "count" : 360,
            "type" : "VEC3"
        },
        {
            "bufferView" : 2,
            "componentType" : 5126,
            "count" : 360,
            "type" : "VEC2"
        },
        {
            "bufferView" : 3,
            "componentType" : 5123,
            "count" : 540,
            "type" : "SCALAR"
        },
        {
            "bufferView" : 4,
            "componentType" : 5126,
            "count" : 241,
            "max" : [
                0.35526949167251587,
                0.36093583703041077,
                0.5924168825149536
            ],
            "min" : [
                -0.35526949167251587,
                -0.36093583703041077,
                0
            ],
            "type" : "VEC3"
        },
        {
            "bufferView" : 5,
            "componentType" : 5126,
            "count" : 241,
            "type" : "VEC3"
        },
        {
            "bufferView" : 6,
            "componentType" : 5126,
            "count" : 241,
            "type" : "VEC2"
        },
        {
            "bufferView" : 7,
            "componentType" : 5123,
            "count" : 798,
            "type" : "SCALAR"
        },
        {
            "bufferView" : 8,
            "componentType" : 5126,
            "count" : 816,
            "max" : [
                0.40454524755477905,
                0.40454527735710144,
                0.901775598526001
            ],
            "min" : [
                -0.40454524755477905,
                -0.40454527735710144,
                0.5847399830818176
            ],
            "type" : "VEC3"
        },
        {
            "bufferView" : 9,
            "componentType" : 5126,
            "count" : 816,
            "type" : "VEC3"
        },
        {
            "bufferView" : 10,
            "componentType" : 5126,
            "count" : 816,
            "type" : "VEC2"
        },
        {
            "bufferView" : 11,
            "componentType" : 5123,
            "count" : 3090,
            "type" : "SCALAR"
        },
        {
            "bufferView" : 12,
            "componentType" : 5126,
            "count" : 360,
            "max" : [
                1.41352379322052,
                1.41352379322052,
                1.4656542539596558
            ],
            "min" : [
                -1.41352379322052,
                -1.41352379322052,
                -1
            ],
            "type" : "VEC3"
        },
        {
            "bufferView" : 13,
            "componentType" : 5126,
            "count" : 360,
            "type" : "VEC3"
        },
        {
            "bufferView" : 14,
            "componentType" : 5126,
            "count" : 360,
            "type" : "VEC2"
        },
        {
            "bufferView" : 15,
            "componentType" : 5123,
            "count" : 540,
            "type" : "SCALAR"
        },
        {
            "bufferView" : 16,
            "componentType" : 5126,
            "count" : 360,
            "max" : [
                2.707979202270508,
                2.5398507118225098,
                3.8248655796051025
            ],
            "min" : [
                -1.477997064590454,
                -2.2210724353790283,
                -1.4162325859069824
            ],
            "type" : "VEC3"
        },
        {
            "bufferView" : 17,
            "componentType" : 5126,
            "count" : 360,
            "type" : "VEC3"
        },
        {
            "bufferView" : 18,
            "componentType" : 5126,
            "count" : 360,
            "type" : "VEC2"
        },
        {
            "bufferView" : 19,
            "componentType" : 5123,
            "count" : 540,
            "type" : "SCALAR"
        }
    ],
    "bufferViews" : [
        {
            "buffer" : 0,
            "byteLength" : 4320,
            "byteOffset" : 0
        },
        {
            "buffer" : 0,
            "byteLength" : 4320,
            "byteOffset" : 4320
        },
        {
            "buffer" : 0,
            "byteLength" : 2880,
            "byteOffset" : 8640
        },
        {
            "buffer" : 0,
            "byteLength" : 1080,
            "byteOffset" : 11520
        },
        {
            "buffer" : 0,
            "byteLength" : 2892,
            "byteOffset" : 12600
        },
        {
            "buffer" : 0,
            "byteLength" : 2892,
            "byteOffset" : 15492
        },
        {
            "buffer" : 0,
            "byteLength" : 1928,
            "byteOffset" : 18384
        },
        {
            "buffer" : 0,
            "byteLength" : 1596,
            "byteOffset" : 20312
        },
        {
            "buffer" : 0,
            "byteLength" : 9792,
            "byteOffset" : 21908
        },
        {
            "buffer" : 0,
            "byteLength" : 9792,
            "byteOffset" : 31700
        },
        {
            "buffer" : 0,
            "byteLength" : 6528,
            "byteOffset" : 41492
        },
        {
            "buffer" : 0,
            "byteLength" : 6180,
            "byteOffset" : 48020
        },
        {
            "buffer" : 0,
            "byteLength" : 4320,
            "byteOffset" : 54200
        },
        {
            "buffer" : 0,
            "byteLength" : 4320,
            "byteOffset" : 58520
        },
        {
            "buffer" : 0,
            "byteLength" : 2880,
            "byteOffset" : 62840
        },
        {
            "buffer" : 0,
            "byteLength" : 1080,
            "byteOffset" : 65720
        },
        {
            "buffer" : 0,
            "byteLength" : 4320,
            "byteOffset" : 66800
        },
        {
            "buffer" : 0,
            "byteLength" : 4320,
            "byteOffset" : 71120
        },
        {
            "buffer" : 0,
            "byteLength" : 2880,
            "byteOffset" : 75440
        },
        {
            "buffer" : 0,
            "byteLength" : 1080,
            "byteOffset" : 78320
        }
    ],
    "buffers" : [
        {
            "byteLength" : 79400,
            "uri" : "building_templates.bin"
        }
    ]
}
