{
    "asset" : {
        "generator" : "Khronos glTF Blender I/O v1.5.17",
        "version" : "2.0"
    },
    "extensionsUsed" : [
        "DSKULLE_game_object"
    ],
    "scene" : 0,
    "scenes" : [
        {
            "name" : "Scene",
            "nodes" : [
                0,
                1,
                2
            ]
        }
    ],
    "nodes" : [
        {
            "extensions" : {
                "DSKULLE_game_object" : {
                    "transform" : "org.dragonskulle.components.Transform3D"
                }
            },
            "mesh" : 0,
            "name" : "attack_prop",
            "scale" : [
                0.4731035530567169,
                0.4731035530567169,
                0.4731035530567169
            ]
        },
        {
            "extensions" : {
                "DSKULLE_game_object" : {
                    "transform" : "org.dragonskulle.components.Transform3D"
                }
            },
            "mesh" : 1,
            "name" : "defence_prop",
            "scale" : [
                0.43347904086112976,
                0.43347904086112976,
                0.43347904086112976
            ]
        },
        {
            "extensions" : {
                "DSKULLE_game_object" : {
                    "transform" : "org.dragonskulle.components.Transform3D"
                }
            },
            "mesh" : 2,
            "name" : "token_generation_prop",
            "scale" : [
                0.46865594387054443,
                0.46865594387054443,
                0.46865594387054443
            ]
        }
    ],
    "materials" : [
        {
            "doubleSided" : true,
            "name" : "Material",
            "pbrMetallicRoughness" : {
                "baseColorFactor" : [
                    0.800000011920929,
                    0.800000011920929,
                    0.800000011920929,
                    1
                ],
                "metallicFactor" : 0,
                "roughnessFactor" : 0.4000000059604645
            }
        }
    ],
    "meshes" : [
        {
            "name" : "Icosphere",
            "primitives" : [
                {
                    "attributes" : {
                        "POSITION" : 0,
                        "NORMAL" : 1,
                        "TEXCOORD_0" : 2
                    },
                    "indices" : 3
                }
            ]
        },
        {
            "name" : "Cube.002",
            "primitives" : [
                {
                    "attributes" : {
                        "POSITION" : 4,
                        "NORMAL" : 5,
                        "TEXCOORD_0" : 6
                    },
                    "indices" : 7,
                    "material" : 0
                }
            ]
        },
        {
            "name" : "Cube.003",
            "primitives" : [
                {
                    "attributes" : {
                        "POSITION" : 8,
                        "NORMAL" : 9,
                        "TEXCOORD_0" : 10
                    },
                    "indices" : 11,
                    "material" : 0
                }
            ]
        }
    ],
    "accessors" : [
        {
            "bufferView" : 0,
            "componentType" : 5126,
            "count" : 240,
            "max" : [
                0.9510578513145447,
                0.9999999403953552,
                2.026259660720825
            ],
            "min" : [
                -0.9510578513145447,
                -0.9999999403953552,
                0.026259660720825195
            ],
            "type" : "VEC3"
        },
        {
            "bufferView" : 1,
            "componentType" : 5126,
            "count" : 240,
            "type" : "VEC3"
        },
        {
            "bufferView" : 2,
            "componentType" : 5126,
            "count" : 240,
            "type" : "VEC2"
        },
        {
            "bufferView" : 3,
            "componentType" : 5123,
            "count" : 240,
            "type" : "SCALAR"
        },
        {
            "bufferView" : 4,
            "componentType" : 5126,
            "count" : 24,
            "max" : [
                1.2952008247375488,
                1.911287784576416,
                1.8252531290054321
            ],
            "min" : [
                -0.8909353017807007,
                -1.4512596130371094,
                -0.03081652522087097
            ],
            "type" : "VEC3"
        },
        {
            "bufferView" : 5,
            "componentType" : 5126,
            "count" : 24,
            "type" : "VEC3"
        },
        {
            "bufferView" : 6,
            "componentType" : 5126,
            "count" : 24,
            "type" : "VEC2"
        },
        {
            "bufferView" : 7,
            "componentType" : 5123,
            "count" : 36,
            "type" : "SCALAR"
        },
        {
            "bufferView" : 8,
            "componentType" : 5126,
            "count" : 24,
            "max" : [
                1,
                1,
                2.0146148204803467
            ],
            "min" : [
                -1,
                -1,
                0.01461482048034668
            ],
            "type" : "VEC3"
        },
        {
            "bufferView" : 9,
            "componentType" : 5126,
            "count" : 24,
            "type" : "VEC3"
        },
        {
            "bufferView" : 10,
            "componentType" : 5126,
            "count" : 24,
            "type" : "VEC2"
        },
        {
            "bufferView" : 11,
            "componentType" : 5123,
            "count" : 36,
            "type" : "SCALAR"
        }
    ],
    "bufferViews" : [
        {
            "buffer" : 0,
            "byteLength" : 2880,
            "byteOffset" : 0
        },
        {
            "buffer" : 0,
            "byteLength" : 2880,
            "byteOffset" : 2880
        },
        {
            "buffer" : 0,
            "byteLength" : 1920,
            "byteOffset" : 5760
        },
        {
            "buffer" : 0,
            "byteLength" : 480,
            "byteOffset" : 7680
        },
        {
            "buffer" : 0,
            "byteLength" : 288,
            "byteOffset" : 8160
        },
        {
            "buffer" : 0,
            "byteLength" : 288,
            "byteOffset" : 8448
        },
        {
            "buffer" : 0,
            "byteLength" : 192,
            "byteOffset" : 8736
        },
        {
            "buffer" : 0,
            "byteLength" : 72,
            "byteOffset" : 8928
        },
        {
            "buffer" : 0,
            "byteLength" : 288,
            "byteOffset" : 9000
        },
        {
            "buffer" : 0,
            "byteLength" : 288,
            "byteOffset" : 9288
        },
        {
            "buffer" : 0,
            "byteLength" : 192,
            "byteOffset" : 9576
        },
        {
            "buffer" : 0,
            "byteLength" : 72,
            "byteOffset" : 9768
        }
    ],
    "buffers" : [
        {
            "byteLength" : 9840,
            "uri" : "prop_templates.bin"
        }
    ]
}
