{
    "asset" : {
        "generator" : "Khronos glTF Blender I/O v1.5.17",
        "version" : "2.0"
    },
    "extensionsUsed" : [
        "DSKULLE_game_object"
    ],
    "scene" : 0,
    "scenes" : [
        {
            "name" : "Scene",
            "nodes" : [
                0,
                1,
                2,
                3,
                4,
                5,
                6,
                7,
                8
            ]
        }
    ],
    "nodes" : [
        {
            "extensions" : {
                "DSKULLE_game_object" : {
                    "transform" : "org.dragonskulle.components.Transform3D"
                }
            },
            "mesh" : 0,
            "name" : "attack_prop_base",
            "scale" : [
                0.1837940663099289,
                0.1837940663099289,
                0.1837940663099289
            ]
        },
        {
            "extensions" : {
                "DSKULLE_game_object" : {
                    "transform" : "org.dragonskulle.components.Transform3D"
                }
            },
            "mesh" : 1,
            "name" : "defence_prop_base",
            "scale" : [
                0.16840049624443054,
                0.16840049624443054,
                0.16840049624443054
            ]
        },
        {
            "extensions" : {
                "DSKULLE_game_object" : {
                    "transform" : "org.dragonskulle.components.Transform3D"
                }
            },
            "mesh" : 2,
            "name" : "token_generation_prop_base",
            "scale" : [
                0.18206623196601868,
                0.18206623196601868,
                0.18206623196601868
            ]
        },
        {
            "extensions" : {
                "DSKULLE_game_object" : {
                    "transform" : "org.dragonskulle.components.Transform3D"
                }
            },
            "mesh" : 3,
            "name" : "attack_prop_medium",
            "scale" : [
                0.20144042372703552,
                0.20144042372703552,
                0.20144042372703552
            ]
        },
        {
            "extensions" : {
                "DSKULLE_game_object" : {
                    "transform" : "org.dragonskulle.components.Transform3D"
                }
            },
            "mesh" : 4,
            "name" : "defence_prop_medium",
            "scale" : [
                0.2398693561553955,
                0.2398693561553955,
                0.2398693561553955
            ]
        },
        {
            "extensions" : {
                "DSKULLE_game_object" : {
                    "transform" : "org.dragonskulle.components.Transform3D"
                }
            },
            "mesh" : 5,
            "name" : "token_generation_prop_medium",
            "scale" : [
                0.20179443061351776,
                0.20179443061351776,
                0.20179443061351776
            ]
        },
        {
            "extensions" : {
                "DSKULLE_game_object" : {
                    "transform" : "org.dragonskulle.components.Transform3D"
                }
            },
            "mesh" : 6,
            "name" : "attack_prop_high",
            "rotation" : [
                0.725135087966919,
                0.02968509867787361,
                -0.031321365386247635,
                0.6872531175613403
            ],
            "scale" : [
                0.3884859085083008,
                0.3884859085083008,
                0.3884859085083008
            ]
        },
        {
            "extensions" : {
                "DSKULLE_game_object" : {
                    "transform" : "org.dragonskulle.components.Transform3D"
                }
            },
            "mesh" : 7,
            "name" : "defence_prop_high",
            "scale" : [
                0.23544707894325256,
                0.23544707894325256,
                0.23544707894325256
            ]
        },
        {
            "extensions" : {
                "DSKULLE_game_object" : {
                    "transform" : "org.dragonskulle.components.Transform3D"
                }
            },
            "mesh" : 8,
            "name" : "token_generation_prop_high",
            "scale" : [
                0.18622249364852905,
                0.18622249364852905,
                0.18622249364852905
            ]
        }
    ],
    "materials" : [
        {
            "doubleSided" : true,
            "name" : "Material",
            "pbrMetallicRoughness" : {
                "baseColorFactor" : [
                    0.800000011920929,
                    0.800000011920929,
                    0.800000011920929,
                    1
                ],
                "metallicFactor" : 0,
                "roughnessFactor" : 0.4000000059604645
            }
        }
    ],
    "meshes" : [
        {
            "name" : "Icosphere",
            "primitives" : [
                {
                    "attributes" : {
                        "POSITION" : 0,
                        "NORMAL" : 1,
                        "TEXCOORD_0" : 2
                    },
                    "indices" : 3
                }
            ]
        },
        {
            "name" : "Cube.002",
            "primitives" : [
                {
                    "attributes" : {
                        "POSITION" : 4,
                        "NORMAL" : 5,
                        "TEXCOORD_0" : 6
                    },
                    "indices" : 7,
                    "material" : 0
                }
            ]
        },
        {
            "name" : "Cube.003",
            "primitives" : [
                {
                    "attributes" : {
                        "POSITION" : 8,
                        "NORMAL" : 9,
                        "TEXCOORD_0" : 10
                    },
                    "indices" : 11,
                    "material" : 0
                }
            ]
        },
        {
            "name" : "Cone",
            "primitives" : [
                {
                    "attributes" : {
                        "POSITION" : 12,
                        "NORMAL" : 13,
                        "TEXCOORD_0" : 14
                    },
                    "indices" : 15
                }
            ]
        },
        {
            "name" : "Sphere",
            "primitives" : [
                {
                    "attributes" : {
                        "POSITION" : 16,
                        "NORMAL" : 17,
                        "TEXCOORD_0" : 18,
                        "COLOR_0" : 19
                    },
                    "indices" : 20
                }
            ]
        },
        {
            "name" : "Cylinder",
            "primitives" : [
                {
                    "attributes" : {
                        "POSITION" : 21,
                        "NORMAL" : 22,
                        "TEXCOORD_0" : 23
                    },
                    "indices" : 24
                }
            ]
        },
        {
            "name" : "Torus",
            "primitives" : [
                {
                    "attributes" : {
                        "POSITION" : 25,
                        "NORMAL" : 26,
                        "TEXCOORD_0" : 27
                    },
                    "indices" : 28
                }
            ]
        },
        {
            "name" : "Icosphere.001",
            "primitives" : [
                {
                    "attributes" : {
                        "POSITION" : 29,
                        "NORMAL" : 30,
                        "TEXCOORD_0" : 31
                    },
                    "indices" : 32
                }
            ]
        },
        {
            "name" : "Suzanne",
            "primitives" : [
                {
                    "attributes" : {
                        "POSITION" : 33,
                        "NORMAL" : 34,
                        "TEXCOORD_0" : 35
                    },
                    "indices" : 36
                }
            ]
        }
    ],
    "accessors" : [
        {
            "bufferView" : 0,
            "componentType" : 5126,
            "count" : 240,
            "max" : [
                0.9510578513145447,
                0.9999999403953552,
                2.026259660720825
            ],
            "min" : [
                -0.9510578513145447,
                -0.9999999403953552,
                0.026259660720825195
            ],
            "type" : "VEC3"
        },
        {
            "bufferView" : 1,
            "componentType" : 5126,
            "count" : 240,
            "type" : "VEC3"
        },
        {
            "bufferView" : 2,
            "componentType" : 5126,
            "count" : 240,
            "type" : "VEC2"
        },
        {
            "bufferView" : 3,
            "componentType" : 5123,
            "count" : 240,
            "type" : "SCALAR"
        },
        {
            "bufferView" : 4,
            "componentType" : 5126,
            "count" : 24,
            "max" : [
                1.2952008247375488,
                1.911287784576416,
                1.8252531290054321
            ],
            "min" : [
                -0.8909353017807007,
                -1.4512596130371094,
                -0.03081652522087097
            ],
            "type" : "VEC3"
        },
        {
            "bufferView" : 5,
            "componentType" : 5126,
            "count" : 24,
            "type" : "VEC3"
        },
        {
            "bufferView" : 6,
            "componentType" : 5126,
            "count" : 24,
            "type" : "VEC2"
        },
        {
            "bufferView" : 7,
            "componentType" : 5123,
            "count" : 36,
            "type" : "SCALAR"
        },
        {
            "bufferView" : 8,
            "componentType" : 5126,
            "count" : 24,
            "max" : [
                1,
                1,
                2.0146148204803467
            ],
            "min" : [
                -1,
                -1,
                0.01461482048034668
            ],
            "type" : "VEC3"
        },
        {
            "bufferView" : 9,
            "componentType" : 5126,
            "count" : 24,
            "type" : "VEC3"
        },
        {
            "bufferView" : 10,
            "componentType" : 5126,
            "count" : 24,
            "type" : "VEC2"
        },
        {
            "bufferView" : 11,
            "componentType" : 5123,
            "count" : 36,
            "type" : "SCALAR"
        },
        {
            "bufferView" : 12,
            "componentType" : 5126,
            "count" : 128,
            "max" : [
                1,
                1,
                2.0113866329193115
            ],
            "min" : [
                -1,
                -1,
                0.011386632919311523
            ],
            "type" : "VEC3"
        },
        {
            "bufferView" : 13,
            "componentType" : 5126,
            "count" : 128,
            "type" : "VEC3"
        },
        {
            "bufferView" : 14,
            "componentType" : 5126,
            "count" : 128,
            "type" : "VEC2"
        },
        {
            "bufferView" : 15,
            "componentType" : 5123,
            "count" : 186,
            "type" : "SCALAR"
        },
        {
            "bufferView" : 16,
            "componentType" : 5126,
            "count" : 1984,
            "max" : [
                1.000000238418579,
                1,
                2.238452911376953
            ],
            "min" : [
                -0.9999998211860657,
                -1.5650461912155151,
                0.014634370803833008
            ],
            "type" : "VEC3"
        },
        {
            "bufferView" : 17,
            "componentType" : 5126,
            "count" : 1984,
            "type" : "VEC3"
        },
        {
            "bufferView" : 18,
            "componentType" : 5126,
            "count" : 1984,
            "type" : "VEC2"
        },
        {
            "bufferView" : 19,
            "componentType" : 5123,
            "count" : 1984,
            "normalized" : true,
            "type" : "VEC4"
        },
        {
            "bufferView" : 20,
            "componentType" : 5123,
            "count" : 2880,
            "type" : "SCALAR"
        },
        {
            "bufferView" : 21,
            "componentType" : 5126,
            "count" : 192,
            "max" : [
                1,
                1,
                2.0150697231292725
            ],
            "min" : [
                -1,
                -1,
                0.015069723129272461
            ],
            "type" : "VEC3"
        },
        {
            "bufferView" : 22,
            "componentType" : 5126,
            "count" : 192,
            "type" : "VEC3"
        },
        {
            "bufferView" : 23,
            "componentType" : 5126,
            "count" : 192,
            "type" : "VEC2"
        },
        {
            "bufferView" : 24,
            "componentType" : 5123,
            "count" : 372,
            "type" : "SCALAR"
        },
        {
            "bufferView" : 25,
            "componentType" : 5126,
            "count" : 2304,
            "max" : [
                1.168609857559204,
                0.6577694416046143,
                0.406787633895874
            ],
            "min" : [
                -1.1666357517242432,
                -0.045188963413238525,
                -0.218208447098732
            ],
            "type" : "VEC3"
        },
        {
            "bufferView" : 26,
            "componentType" : 5126,
            "count" : 2304,
            "type" : "VEC3"
        },
        {
            "bufferView" : 27,
            "componentType" : 5126,
            "count" : 2304,
            "type" : "VEC2"
        },
        {
            "bufferView" : 28,
            "componentType" : 5123,
            "count" : 3456,
            "type" : "SCALAR"
        },
        {
            "bufferView" : 29,
            "componentType" : 5126,
            "count" : 240,
            "max" : [
                0.6365466713905334,
                0.9999999403953552,
                1.4534657001495361
            ],
            "min" : [
                -0.7737133502960205,
                -0.49247869849205017,
                0.03920668363571167
            ],
            "type" : "VEC3"
        },
        {
            "bufferView" : 30,
            "componentType" : 5126,
            "count" : 240,
            "type" : "VEC3"
        },
        {
            "bufferView" : 31,
            "componentType" : 5126,
            "count" : 240,
            "type" : "VEC2"
        },
        {
            "bufferView" : 32,
            "componentType" : 5123,
            "count" : 240,
            "type" : "SCALAR"
        },
        {
            "bufferView" : 33,
            "componentType" : 5126,
            "count" : 1966,
            "max" : [
                1.3671875,
                0.8515625,
                1.979377031326294
            ],
            "min" : [
                -1.3671875,
                -0.8515625,
                0.01062709093093872
            ],
            "type" : "VEC3"
        },
        {
            "bufferView" : 34,
            "componentType" : 5126,
            "count" : 1966,
            "type" : "VEC3"
        },
        {
            "bufferView" : 35,
            "componentType" : 5126,
            "count" : 1966,
            "type" : "VEC2"
        },
        {
            "bufferView" : 36,
            "componentType" : 5123,
            "count" : 2904,
            "type" : "SCALAR"
        }
    ],
    "bufferViews" : [
        {
            "buffer" : 0,
            "byteLength" : 2880,
            "byteOffset" : 0
        },
        {
            "buffer" : 0,
            "byteLength" : 2880,
            "byteOffset" : 2880
        },
        {
            "buffer" : 0,
            "byteLength" : 1920,
            "byteOffset" : 5760
        },
        {
            "buffer" : 0,
            "byteLength" : 480,
            "byteOffset" : 7680
        },
        {
            "buffer" : 0,
            "byteLength" : 288,
            "byteOffset" : 8160
        },
        {
            "buffer" : 0,
            "byteLength" : 288,
            "byteOffset" : 8448
        },
        {
            "buffer" : 0,
            "byteLength" : 192,
            "byteOffset" : 8736
        },
        {
            "buffer" : 0,
            "byteLength" : 72,
            "byteOffset" : 8928
        },
        {
            "buffer" : 0,
            "byteLength" : 288,
            "byteOffset" : 9000
        },
        {
            "buffer" : 0,
            "byteLength" : 288,
            "byteOffset" : 9288
        },
        {
            "buffer" : 0,
            "byteLength" : 192,
            "byteOffset" : 9576
        },
        {
            "buffer" : 0,
            "byteLength" : 72,
            "byteOffset" : 9768
        },
        {
            "buffer" : 0,
            "byteLength" : 1536,
            "byteOffset" : 9840
        },
        {
            "buffer" : 0,
            "byteLength" : 1536,
            "byteOffset" : 11376
        },
        {
            "buffer" : 0,
            "byteLength" : 1024,
            "byteOffset" : 12912
        },
        {
            "buffer" : 0,
            "byteLength" : 372,
            "byteOffset" : 13936
        },
        {
            "buffer" : 0,
            "byteLength" : 23808,
            "byteOffset" : 14308
        },
        {
            "buffer" : 0,
            "byteLength" : 23808,
            "byteOffset" : 38116
        },
        {
            "buffer" : 0,
            "byteLength" : 15872,
            "byteOffset" : 61924
        },
        {
            "buffer" : 0,
            "byteLength" : 15872,
            "byteOffset" : 77796
        },
        {
            "buffer" : 0,
            "byteLength" : 5760,
            "byteOffset" : 93668
        },
        {
            "buffer" : 0,
            "byteLength" : 2304,
            "byteOffset" : 99428
        },
        {
            "buffer" : 0,
            "byteLength" : 2304,
            "byteOffset" : 101732
        },
        {
            "buffer" : 0,
            "byteLength" : 1536,
            "byteOffset" : 104036
        },
        {
            "buffer" : 0,
            "byteLength" : 744,
            "byteOffset" : 105572
        },
        {
            "buffer" : 0,
            "byteLength" : 27648,
            "byteOffset" : 106316
        },
        {
            "buffer" : 0,
            "byteLength" : 27648,
            "byteOffset" : 133964
        },
        {
            "buffer" : 0,
            "byteLength" : 18432,
            "byteOffset" : 161612
        },
        {
            "buffer" : 0,
            "byteLength" : 6912,
            "byteOffset" : 180044
        },
        {
            "buffer" : 0,
            "byteLength" : 2880,
            "byteOffset" : 186956
        },
        {
            "buffer" : 0,
            "byteLength" : 2880,
            "byteOffset" : 189836
        },
        {
            "buffer" : 0,
            "byteLength" : 1920,
            "byteOffset" : 192716
        },
        {
            "buffer" : 0,
            "byteLength" : 480,
            "byteOffset" : 194636
        },
        {
            "buffer" : 0,
            "byteLength" : 23592,
            "byteOffset" : 195116
        },
        {
            "buffer" : 0,
            "byteLength" : 23592,
            "byteOffset" : 218708
        },
        {
            "buffer" : 0,
            "byteLength" : 15728,
            "byteOffset" : 242300
        },
        {
            "buffer" : 0,
            "byteLength" : 5808,
            "byteOffset" : 258028
        }
    ],
    "buffers" : [
        {
            "byteLength" : 263836,
            "uri" : "prop_templates.bin"
        }
    ]
}
