{
    "asset" : {
        "generator" : "Khronos glTF Blender I/O v1.5.17",
        "version" : "2.0"
    },
    "extensionsUsed" : [
        "DSKULLE_game_object"
    ],
    "scene" : 0,
    "scenes" : [
        {
            "name" : "Scene",
            "nodes" : [
                0
            ]
        }
    ],
    "nodes" : [
        {
            "extensions" : {
                "DSKULLE_game_object" : {
                    "transform" : "org.dragonskulle.components.Transform3D"
                }
            },
            "mesh" : 0,
            "name" : "Hex"
        }
    ],
    "materials" : [
        {
            "doubleSided" : true,
            "name" : "MenuHex",
            "pbrMetallicRoughness" : {
                "baseColorFactor" : [
                    1,
                    0.537187397480011,
                    0.06823772937059402,
                    1
                ],
                "roughnessFactor" : 0.19117647409439087
            }
        }
    ],
    "meshes" : [
        {
            "name" : "Circle",
            "primitives" : [
                {
                    "attributes" : {
                        "POSITION" : 0,
                        "NORMAL" : 1,
                        "TEXCOORD_0" : 2
                    },
                    "indices" : 3,
                    "material" : 0
                }
            ]
        }
    ],
    "accessors" : [
        {
            "bufferView" : 0,
            "componentType" : 5126,
            "count" : 126,
            "max" : [
                0.866025447845459,
                0.9942233562469482,
                0
            ],
            "min" : [
                -0.866025447845459,
                -0.9942233562469482,
                -6.79408597946167
            ],
            "type" : "VEC3"
        },
        {
            "bufferView" : 1,
            "componentType" : 5126,
            "count" : 126,
            "type" : "VEC3"
        },
        {
            "bufferView" : 2,
            "componentType" : 5126,
            "count" : 126,
            "type" : "VEC2"
        },
        {
            "bufferView" : 3,
            "componentType" : 5123,
            "count" : 498,
            "type" : "SCALAR"
        }
    ],
    "bufferViews" : [
        {
            "buffer" : 0,
            "byteLength" : 1512,
            "byteOffset" : 0
        },
        {
            "buffer" : 0,
            "byteLength" : 1512,
            "byteOffset" : 1512
        },
        {
            "buffer" : 0,
            "byteLength" : 1008,
            "byteOffset" : 3024
        },
        {
            "buffer" : 0,
            "byteLength" : 996,
            "byteOffset" : 4032
        }
    ],
    "buffers" : [
        {
            "byteLength" : 5028,
            "uri" : "templates.bin"
        }
    ]
}
